<svg xmlns="http://www.w3.org/2000/svg" width="738" height="1600" viewBox="0 0 390 844"><title>Mi perfil — datos ficticios</title><g font-family="Arial, sans-serif"><rect x="0" y="0" width="390" height="844" rx="0" fill="#f4f7fc" stroke="none"/><rect x="0" y="0" width="390" height="83" rx="0" fill="#fff" stroke="none"/><text x="22" y="28" font-size="12" fill="#17202e" font-weight="600">12:14</text><text x="316" y="28" font-size="11" fill="#687383" font-weight="400">▰  100%</text><text x="22" y="65" font-size="26" fill="#17202e" font-weight="400">☰</text><text x="74" y="63" font-size="21" fill="#2460ed" font-weight="700">♧ A ⇄</text><text x="244" y="64" font-size="27" fill="#2460ed" font-weight="400">☾</text><text x="292" y="62" font-size="26" fill="#2460ed" font-weight="400">◎</text><text x="339" y="62" font-size="26" fill="#2460ed" font-weight="400">☏</text><text x="20" y="126" font-size="31" fill="#17202e" font-weight="800">Mi perfil</text><text x="20" y="153" font-size="14" fill="#687383" font-weight="400">Tu identidad en la comunidad</text><rect x="20" y="178" width="350" height="77" rx="18" fill="#e8f8f1" stroke="#a3ddc4"/><text x="38" y="209" font-size="20" fill="#159b70" font-weight="700">✓ Perfil esencial completo</text><text x="38" y="234" font-size="14" fill="#687383" font-weight="400">Todos tus datos listos · 100%</text><rect x="20" y="278" width="350" height="360" rx="18" fill="#fff" stroke="#e1e6ed"/><circle cx="195" cy="327" r="22" fill="#2460ed"/><text x="184" y="332" font-size="14" fill="#fff" font-weight="700">ML</text><text x="124" y="385" font-size="25" fill="#17202e" font-weight="800">Mateo Luna</text><text x="106" y="415" font-size="16" fill="#687383" font-weight="400">Córdoba, Argentina</text><text x="92" y="443" font-size="14" fill="#687383" font-weight="400">mateo.luna@example.com</text><rect x="88" y="465" width="215" height="38" rx="12" fill="#2460ed" stroke="none"/><text x="100" y="490" font-size="13" fill="#fff" font-weight="600">Corredor y entrenador</text><rect x="42" y="527" width="145" height="83" rx="18" fill="#f4f7fc" stroke="#e1e6ed"/><rect x="203" y="527" width="145" height="83" rx="18" fill="#f4f7fc" stroke="#e1e6ed"/><text x="86" y="554" font-size="12" fill="#687383" font-weight="700">EDAD</text><text x="97" y="589" font-size="28" fill="#17202e" font-weight="700">37</text><text x="237" y="554" font-size="12" fill="#687383" font-weight="700">CATEGORÍA</text><text x="230" y="589" font-size="28" fill="#17202e" font-weight="700">35–39</text><rect x="20" y="657" width="350" height="105" rx="18" fill="#fff" stroke="#e1e6ed"/><text x="38" y="686" font-size="19" fill="#17202e" font-weight="700">Tu objetivo</text><text x="38" y="712" font-size="14" fill="#687383" font-weight="400">Media maratón · bajar de 1:40</text><text x="38" y="739" font-size="14" fill="#2460ed" font-weight="600">Club ficticio: Horizonte Running</text><rect x="0" y="772" width="390" height="72" rx="0" fill="#fff" stroke="none"/><text x="29" y="800" font-size="23" fill="#2460ed" font-weight="700">⌂</text><text x="10" y="823" font-size="11" fill="#2460ed" font-weight="700">Inicio</text><text x="107" y="800" font-size="23" fill="#687383" font-weight="700">▦</text><text x="88" y="823" font-size="11" fill="#687383" font-weight="400">Mi semana</text><text x="185" y="800" font-size="23" fill="#687383" font-weight="700">⚑</text><text x="166" y="823" font-size="11" fill="#687383" font-weight="400">Carreras</text><text x="263" y="800" font-size="23" fill="#687383" font-weight="700">♜</text><text x="244" y="823" font-size="11" fill="#687383" font-weight="400">Ranking</text><text x="341" y="800" font-size="23" fill="#687383" font-weight="700">♧</text><text x="322" y="823" font-size="9.35672514619883" fill="#687383" font-weight="400">Comunidad</text></g></svg>